<?xml version="1.0" standalone="no"?>
<!DOCTYPE svg PUBLIC "-//W3C//DTD SVG 20010904//EN"
 "http://www.w3.org/TR/2001/REC-SVG-20010904/DTD/svg10.dtd">
<svg version="1.0" xmlns="http://www.w3.org/2000/svg"
 width="640.000000pt" height="640.000000pt" viewBox="0 0 640.000000 640.000000"
 preserveAspectRatio="xMidYMid meet">
<metadata>
Created by potrace 1.14, written by Peter Selinger 2001-2017
</metadata>
<g transform="translate(0.000000,640.000000) scale(0.100000,-0.100000)"
fill="#000000" stroke="none">
<path d="M2455 4984 c-16 -2 -73 -9 -125 -15 -241 -27 -515 -106 -725 -208
-118 -58 -317 -182 -344 -214 -11 -14 -33 -17 -126 -17 -212 0 -498 -31 -665
-72 -103 -25 -208 -70 -217 -94 -4 -10 5 -53 21 -98 36 -107 209 -461 275
-563 l51 -80 -25 -94 c-17 -59 -29 -139 -34 -214 -7 -96 -14 -133 -35 -183
-46 -106 -58 -190 -53 -347 7 -207 47 -325 168 -485 75 -100 184 -194 306
-266 50 -30 93 -54 96 -54 2 0 34 -13 70 -30 l66 -30 -20 -48 -20 -48 -62 4
c-50 3 -79 -2 -147 -26 -47 -17 -123 -37 -170 -45 -168 -29 -230 -74 -238
-173 -7 -90 37 -157 138 -209 19 -10 57 -35 85 -55 106 -79 268 -139 422 -156
37 -4 92 -15 122 -25 74 -26 186 -25 511 5 146 14 335 30 420 36 85 6 184 15
220 20 36 5 100 10 143 10 78 0 79 0 125 -41 52 -45 215 -141 290 -169 112
-43 214 -54 472 -54 418 1 746 62 988 185 140 71 178 99 204 153 l20 42 147
33 c468 105 873 207 1041 262 163 54 161 53 225 186 31 65 60 126 65 135 6 10
10 23 10 28 0 16 -97 57 -153 66 -39 5 -47 9 -41 23 63 146 15 290 -112 331
-36 12 -131 9 -165 -5 -12 -5 -21 8 -39 57 -12 35 -47 109 -77 166 l-54 102
38 73 c52 99 134 177 268 256 165 97 259 206 312 360 45 131 20 235 -67 279
-51 25 -118 29 -158 8 -41 -21 -74 -61 -138 -166 -78 -129 -144 -196 -243
-248 -109 -58 -169 -107 -216 -178 -22 -32 -42 -63 -46 -67 -4 -5 -45 20 -92
56 -76 59 -271 167 -300 167 -7 0 -21 47 -34 114 -26 133 -70 275 -123 399
l-38 88 19 43 c46 105 87 350 96 577 7 171 1 224 -25 238 -82 44 -543 59 -812
27 l-145 -17 -130 59 c-329 150 -636 214 -1010 211 -99 -1 -193 -4 -210 -5z"/>
</g>
</svg>
